<?xml version="1.0" encoding="UTF-8"?>
<svg id="Camada_2" data-name="Camada 2" xmlns="http://www.w3.org/2000/svg" viewBox="0 0 2813.65 608.02">
  <g id="Camada_1-2" data-name="Camada 1">
    <path id="Niro_Media_Horizontal" data-name="Niro Media Horizontal" d="m539.22,12.84v582.18h-190.5L121.24,81.99v513.04H0V12.84h203.36l214.63,480.54V12.84h121.24Zm91.61,0v582.18h128.5V12.84h-128.5Zm643.18,449.41l75.73-92.42v-181.39c0-97.04-78.67-175.71-175.71-175.71h-323.1v582.42h191.87l-118.55-144.7v-190.47c0-108.35,94.24-171.14,179.25-171.14h1.46l171.38,209.21.06.09-.06.06-68.18,83.23-24.86-30.34h-65.28v110.14l109.67,133.92h155.15l-108.85-132.89Zm590.18,107.77c-88.4,50.67-209.62,50.67-298,0-66.7-37.87-110.57-103.78-128.06-178.84C1393.79,193.88,1497.86-.1,1715.19.02c136.06-1.45,247.25,83.68,277.06,216.68,30.43,127.89-7.31,286.29-128.06,353.32Zm-63.17-443.55c-49.13-31.86-122.56-31.88-171.67,0-72.87,49.93-77.67,155.47-66.86,236.04,11.89,83.56,65.19,143.92,152.69,142.5,87.46,1.45,140.84-58.98,152.66-142.5,10.83-80.56,6.03-186.12-66.83-236.04Zm476.79,164.31l36.08,56.24,36.08-56.08v74.51h23v-122.88h-19.22l-39.86,66.8-39.85-66.8h-19.22v122.88h22.99v-74.68Zm148.05,54.51v-31.35h55.46v-20.16h-55.46v-31.35h60.66v-19.85h-83.65v122.88h83.65v-20.16h-60.66Zm136.09,20.16c48.36,0,58.6-27.72,58.6-61.28s-11.03-61.6-58.6-61.6h-45.53v122.88h45.53Zm.31-101.61c29.62,0,35.45,19.53,35.45,40.33s-4.72,39.85-35.45,39.85h-22.84v-80.18h22.84Zm86.63-21.27v122.88h22.99v-122.88h-22.99Zm82.85,97.05h48.04l8.35,25.83h25.52l-45.21-122.88h-25.2l-45.37,122.88h25.52l8.35-25.83Zm6.77-20.8l17.33-53.41,17.17,53.41h-34.5Z"/>
  </g>
</svg>